<svg width="40" height="40" viewBox="0 0 40 40" fill="none" xmlns="http://www.w3.org/2000/svg">
<circle cx="20" cy="20" r="20" fill="#FF4E8A"/>
<path d="M24.6993 27.2942H15.3011C14.0024 27.2942 12.9414 26.2332 12.9414 24.9345V15.5362C12.9414 14.2375 14.0024 13.1765 15.3011 13.1765H24.6993C25.9981 13.1765 27.0591 14.2375 27.0591 15.5362V24.9345C27.0591 26.239 26.0039 27.2942 24.6993 27.2942Z" fill="white"/>
<path d="M20.003 23.8618C19.0348 23.8618 18.1245 23.485 17.4404 22.8008C16.7563 22.1167 16.3794 21.2064 16.3794 20.2382C16.3794 19.27 16.7563 18.3597 17.4404 17.6756C18.1245 16.9914 19.0348 16.6146 20.003 16.6146C20.9713 16.6146 21.8815 16.9914 22.5656 17.6756C23.2498 18.3597 23.6266 19.27 23.6266 20.2382C23.6266 21.2064 23.2498 22.1167 22.5656 22.8008C21.8757 23.485 20.9713 23.8618 20.003 23.8618ZM20.003 17.3857C18.4318 17.3857 17.1505 18.6612 17.1505 20.2382C17.1505 21.8094 18.426 23.0907 20.003 23.0907C21.5742 23.0907 22.8555 21.8152 22.8555 20.2382C22.8497 18.667 21.5742 17.3857 20.003 17.3857Z" fill="#FF4E8A"/>
<path d="M24.333 16.4955C24.7172 16.4955 25.0287 16.184 25.0287 15.7998C25.0287 15.4155 24.7172 15.104 24.333 15.104C23.9487 15.104 23.6372 15.4155 23.6372 15.7998C23.6372 16.184 23.9487 16.4955 24.333 16.4955Z" fill="#FF4E8A"/>
</svg>
